<?xml version="1.0" standalone="no"?>
<!DOCTYPE svg PUBLIC "-//W3C//DTD SVG 20010904//EN"
 "http://www.w3.org/TR/2001/REC-SVG-20010904/DTD/svg10.dtd">
<svg version="1.0" xmlns="http://www.w3.org/2000/svg"
 width="700.000000pt" height="700.000000pt" viewBox="0 0 700.000000 700.000000"
 preserveAspectRatio="xMidYMid meet">
<metadata>
Created by potrace 1.14, written by Peter Selinger 2001-2017
</metadata>
<g transform="translate(0.000000,700.000000) scale(0.100000,-0.100000)"
fill="#000000" stroke="none">
<path d="M534 6985 c-242 -53 -419 -217 -508 -470 l-21 -60 -2 -2925 c-3
-3268 -9 -2993 71 -3155 94 -190 274 -326 480 -364 81 -15 5817 -15 5896 0
238 45 433 217 518 458 l27 76 2 2930 c1 2474 -1 2940 -12 2995 -8 36 -35 106
-59 155 -85 172 -214 281 -410 349 l-61 21 -2930 2 c-2405 1 -2941 -1 -2991
-12z m221 -240 c22 -3 47 -8 55 -10 8 -2 31 -7 50 -10 31 -5 401 -81 440 -90
712 -168 1079 -345 1159 -560 103 -273 -276 -627 -1114 -1042 -110 -55 -290
-139 -400 -187 -110 -48 -215 -95 -234 -103 -19 -9 -130 -55 -247 -103 -199
-81 -213 -85 -216 -66 -2 12 -3 145 -3 296 l1 275 99 28 c845 235 1227 372
1404 502 157 115 109 225 -124 288 -33 9 -73 19 -90 22 -110 21 -189 34 -245
40 -36 4 -73 9 -82 10 -9 2 -45 6 -80 10 -35 3 -81 7 -103 10 -22 2 -76 6
-120 10 -44 3 -100 8 -125 10 -44 4 -141 12 -247 19 -28 3 -103 8 -165 11 -62
4 -115 11 -118 16 -11 16 -2 264 10 309 45 168 188 298 350 317 25 3 46 6 47
7 3 3 51 -1 98 -9z m1685 -4 c41 -7 86 -15 100 -17 14 -2 41 -7 60 -10 19 -3
79 -16 132 -30 386 -97 576 -252 555 -454 -18 -173 -173 -388 -452 -628 -246
-212 -666 -498 -1055 -720 -19 -11 -79 -45 -133 -76 -54 -31 -100 -56 -102
-56 -2 0 -26 -13 -52 -28 -108 -64 -690 -360 -843 -430 -25 -11 -123 -57 -219
-101 -95 -44 -176 -79 -180 -77 -3 2 -6 86 -6 187 l1 183 54 23 c289 118 549
226 583 242 23 11 69 31 102 45 140 62 191 86 395 188 118 59 276 142 350 184
128 72 372 228 401 256 8 7 37 30 64 51 76 57 211 194 251 254 70 105 89 159
88 253 0 73 -4 93 -28 143 -107 222 -465 398 -1131 557 -173 41 -273 63 -292
63 -7 0 -10 3 -9 6 8 12 1289 4 1366 -8z m2530 9 c0 -3 -10 -16 -22 -30 -13
-14 -48 -54 -78 -90 -53 -62 -264 -301 -359 -405 -56 -62 -494 -499 -541 -540
-396 -348 -660 -516 -1210 -772 -757 -352 -1175 -599 -1565 -925 -93 -77 -321
-299 -390 -379 -210 -243 -392 -516 -504 -759 -24 -52 -47 -98 -50 -102 -3 -4
-6 285 -6 642 l0 648 40 18 c274 120 807 380 1100 536 1024 549 1682 1040
1890 1413 57 103 78 178 73 270 -11 196 -156 328 -477 434 -52 17 -105 31
-118 31 -13 0 -22 3 -20 8 6 8 2237 10 2237 2z m827 -2 c-1 -4 -103 -89 -227
-188 -124 -100 -243 -197 -265 -215 -22 -18 -66 -53 -98 -79 -33 -26 -69 -56
-80 -66 -12 -10 -125 -103 -252 -207 -126 -104 -241 -198 -255 -210 -14 -12
-59 -50 -100 -84 -83 -68 -177 -148 -194 -164 -6 -6 -39 -34 -73 -62 -68 -56
-79 -66 -121 -103 -32 -28 -54 -48 -207 -180 -61 -52 -116 -101 -123 -108 -8
-7 -73 -65 -145 -130 -72 -64 -138 -124 -147 -132 -9 -8 -70 -64 -136 -125
-123 -114 -601 -589 -689 -685 -28 -30 -82 -91 -120 -135 -39 -44 -72 -82 -75
-85 -11 -10 -178 -217 -222 -275 -48 -63 -166 -236 -184 -270 -6 -11 -32 -58
-57 -104 -166 -298 -196 -561 -82 -735 61 -95 133 -153 260 -212 91 -42 246
-85 360 -100 22 -2 49 -7 60 -9 130 -26 722 -27 975 -1 19 2 73 7 120 11 47 4
93 9 103 10 10 2 46 6 80 9 34 4 73 8 87 10 14 3 48 7 75 11 187 22 236 29
575 85 206 34 333 57 556 101 82 16 159 31 170 33 106 21 319 66 504 107 124
28 232 52 240 54 29 6 66 15 175 41 61 14 121 28 135 30 14 3 94 22 178 43
132 34 152 37 153 22 4 -62 3 -724 -1 -730 -3 -3 -66 -7 -140 -7 -159 -1 -575
-13 -640 -18 -25 -2 -101 -7 -170 -11 -69 -3 -141 -8 -160 -10 -19 -2 -76 -6
-127 -10 -51 -3 -102 -8 -115 -10 -13 -2 -53 -6 -90 -10 -37 -3 -77 -8 -90
-10 -13 -2 -49 -6 -82 -10 -32 -4 -68 -8 -80 -10 -11 -2 -43 -6 -71 -10 -27
-3 -90 -13 -140 -21 -49 -8 -103 -17 -120 -20 -25 -4 -108 -20 -150 -29 -5 -1
-28 -5 -50 -9 -109 -21 -370 -91 -502 -134 -319 -106 -561 -232 -743 -388
-173 -148 -366 -213 -625 -208 -77 1 -158 5 -180 8 -130 22 -170 30 -259 52
-90 23 -219 63 -271 84 -11 4 -74 29 -140 55 -136 54 -373 167 -515 246 -320
177 -727 445 -985 651 l-60 48 1 207 1 208 38 100 c111 297 304 607 564 910
66 76 306 311 391 381 105 87 261 204 360 271 73 49 410 253 440 266 8 4 35
19 60 33 123 71 444 230 735 364 404 187 720 376 951 569 17 14 52 44 80 66
164 134 527 487 724 705 52 58 99 110 105 116 5 6 78 89 160 184 83 96 164
188 180 205 l30 30 367 0 c203 0 367 -3 365 -7z m543 3 c25 -2 25 -2 -10 -33
-45 -40 -192 -175 -390 -358 -57 -52 -112 -103 -122 -112 -11 -9 -74 -68 -141
-131 -67 -63 -138 -129 -157 -147 -283 -262 -995 -967 -1175 -1164 -55 -60
-105 -114 -111 -120 -54 -55 -289 -329 -379 -441 -395 -493 -588 -860 -587
-1120 0 -150 64 -272 182 -348 77 -49 87 -53 183 -81 153 -45 263 -55 527 -51
118 2 226 6 240 9 14 2 54 7 90 10 186 18 525 70 720 111 14 3 46 10 71 15
317 63 1229 295 1432 365 20 7 37 10 38 6 5 -38 2 -416 -3 -424 -3 -6 -12 -12
-20 -13 -7 -1 -49 -11 -93 -22 -126 -33 -732 -173 -850 -197 -11 -2 -103 -22
-205 -43 -102 -22 -198 -43 -215 -45 -16 -3 -55 -11 -85 -17 -30 -6 -66 -13
-80 -16 -14 -2 -45 -9 -70 -14 -25 -5 -61 -12 -80 -15 -19 -3 -69 -12 -110
-20 -83 -16 -108 -20 -195 -35 -33 -5 -69 -12 -80 -14 -11 -2 -41 -6 -66 -10
-25 -4 -57 -9 -71 -11 -67 -12 -353 -55 -433 -65 -49 -6 -101 -13 -115 -15
-14 -2 -56 -7 -95 -11 -38 -3 -77 -8 -86 -9 -8 -2 -53 -6 -100 -10 -46 -4
-100 -9 -119 -10 -309 -32 -826 -25 -1035 15 -52 10 -59 11 -135 29 -203 47
-374 159 -434 284 -22 48 -40 128 -40 182 0 278 235 682 698 1205 138 155 615
635 810 815 148 136 124 115 236 215 52 47 101 91 108 98 8 7 80 70 161 140
80 69 148 129 151 132 3 4 70 62 150 129 80 68 156 133 170 145 24 20 253 212
295 247 11 10 41 34 66 55 25 22 63 53 85 71 21 17 143 116 270 220 126 103
248 203 270 220 22 18 130 105 240 194 109 89 215 174 235 188 l35 26 200 -1
c109 -1 210 -2 224 -3z m215 -64 c113 -75 184 -195 198 -332 l5 -50 -81 -79
c-391 -377 -734 -729 -928 -950 -19 -22 -41 -47 -49 -56 -8 -8 -40 -45 -70
-80 -30 -36 -61 -71 -68 -79 -33 -34 -286 -355 -345 -437 -358 -498 -498 -842
-437 -1071 39 -142 147 -223 345 -257 75 -13 371 -15 391 -3 5 3 38 8 74 11
199 20 657 136 1058 269 56 19 104 32 105 28 2 -3 3 -86 2 -184 -1 -141 -4
-180 -15 -187 -21 -13 -751 -216 -842 -234 -13 -3 -57 -13 -98 -24 -63 -17
-321 -77 -370 -87 -8 -2 -91 -19 -185 -38 -93 -20 -188 -38 -210 -41 -22 -4
-76 -13 -120 -21 -129 -23 -325 -50 -435 -60 -36 -3 -85 -9 -110 -12 -72 -9
-428 -10 -489 -1 -31 4 -76 10 -101 14 -201 26 -360 117 -421 240 -21 44 -24
62 -24 164 1 103 4 125 33 210 82 239 262 530 541 873 149 185 276 329 496
566 180 195 886 893 1179 1166 8 8 369 343 462 430 6 5 55 51 109 100 55 50
125 115 158 145 32 30 75 69 95 87 l35 31 41 -15 c23 -9 55 -25 71 -36z m200
-1002 l-1 -517 -39 -36 c-22 -19 -67 -60 -100 -90 -350 -315 -654 -669 -751
-875 -109 -232 10 -324 311 -243 104 29 364 128 496 190 42 20 78 36 80 36 3
0 3 -433 0 -467 -2 -24 -672 -227 -850 -258 -19 -3 -37 -8 -40 -10 -8 -4 -219
-42 -283 -50 -366 -48 -599 -8 -698 118 -45 57 -63 166 -45 275 28 165 160
435 343 702 96 140 314 427 377 496 6 6 30 35 55 64 240 287 452 513 825 882
327 323 309 306 315 303 3 -2 5 -236 5 -520z m-6255 350 c25 -2 79 -6 120 -9
41 -3 111 -8 155 -11 44 -3 98 -8 121 -10 22 -3 74 -7 115 -10 41 -3 85 -7 99
-10 14 -2 50 -7 80 -10 396 -44 609 -111 585 -185 -23 -73 -279 -197 -685
-333 -185 -62 -760 -229 -824 -239 -19 -3 -20 7 -20 416 l-1 418 105 -7 c58
-4 125 -9 150 -10z m6254 -1390 l1 -424 -125 -57 c-380 -172 -653 -244 -723
-191 -41 31 -20 123 56 246 36 59 113 169 126 181 3 3 35 41 71 85 36 44 92
109 125 145 143 154 455 453 464 444 3 -2 5 -195 5 -429z m-6369 -2692 c141
-106 414 -292 568 -387 511 -315 960 -512 1362 -595 143 -30 154 -32 321 -36
302 -7 496 59 714 245 197 168 520 315 931 424 135 36 441 100 534 112 28 3
52 7 55 9 3 2 29 6 59 10 30 4 63 8 74 11 10 2 45 6 76 9 31 3 67 8 81 10 14
3 52 8 84 11 33 3 67 7 76 9 9 2 54 6 101 9 46 4 104 9 129 11 122 12 376 27
680 40 156 6 507 8 516 3 10 -7 12 -373 2 -383 -3 -4 -32 -2 -64 4 -33 6 -81
13 -109 17 -27 3 -61 8 -75 10 -14 1 -59 6 -100 10 -41 3 -104 10 -140 14 -69
9 -600 6 -662 -3 -20 -3 -56 -9 -80 -12 -482 -67 -843 -252 -1112 -569 -96
-113 -184 -257 -296 -480 l-106 -210 -1226 -1 c-674 0 -1224 3 -1221 8 2 4 9
7 14 7 23 0 223 104 278 145 285 210 90 425 -524 578 -133 34 -354 78 -455 92
-14 2 -58 9 -98 14 -40 6 -94 13 -120 16 -26 3 -63 8 -82 10 -19 3 -66 8 -105
10 -125 9 -209 16 -215 20 -4 2 -5 829 -1 900 1 12 4 16 9 9 4 -6 61 -51 127
-101z m5895 -496 c14 -3 59 -8 100 -11 41 -3 84 -8 95 -10 11 -2 43 -7 70 -10
136 -17 205 -29 206 -35 5 -30 3 -334 -2 -337 -4 -2 -38 9 -77 25 -115 48
-310 108 -427 132 -144 30 -384 33 -485 6 -235 -63 -398 -211 -506 -457 -38
-88 -86 -246 -99 -330 -3 -19 -11 -69 -18 -110 l-12 -74 -523 -1 c-287 0 -522
1 -522 1 0 20 156 331 210 419 240 393 543 615 1000 734 87 22 244 48 351 57
41 4 76 8 78 10 6 5 532 -3 561 -9z m-47 -307 c179 -35 505 -152 517 -185 10
-30 3 -349 -10 -395 -44 -163 -172 -283 -337 -317 -31 -6 -1168 -11 -1196 -5
-20 5 -18 34 14 193 84 426 284 666 601 724 99 18 278 12 411 -15z m-5793 -85
c36 -3 81 -8 100 -10 19 -2 60 -7 90 -10 30 -3 66 -7 80 -9 14 -3 47 -7 74
-11 74 -9 270 -44 376 -66 424 -90 712 -218 750 -334 15 -47 -7 -92 -74 -151
-59 -52 -226 -137 -371 -190 l-100 -36 -178 -2 c-97 0 -177 0 -177 1 0 1 28
19 63 39 104 64 130 83 184 136 84 82 93 152 27 206 -28 23 -91 51 -119 53 -2
0 -19 4 -37 10 -64 18 -156 24 -373 24 -193 0 -350 -7 -412 -19 -11 -2 -37 -6
-58 -8 l-39 -3 -1 185 c0 102 1 190 3 197 4 12 32 12 192 -2z m673 -434 c112
-27 159 -54 152 -90 -2 -9 -4 -19 -4 -23 -3 -28 -139 -133 -251 -195 -139 -77
-137 -77 -239 -77 -135 -1 -206 10 -278 44 -87 40 -156 108 -198 194 -42 86
-49 137 -20 141 57 8 130 16 215 21 52 4 97 8 99 10 2 2 101 1 220 0 177 -3
232 -8 304 -25z"/>
</g>
</svg>
